<svg width="128" height="128" viewBox="0 0 128 128" fill="none" xmlns="http://www.w3.org/2000/svg">
<path d="M9 17C6.23858 17 4 19.2386 4 22V31.5133C4 32.1965 4.38004 32.8229 4.98594 33.1385L61.6903 62.672C63.1378 63.426 64.8622 63.426 66.3097 62.672L123.014 33.1385C123.62 32.8229 124 32.1965 124 31.5133V22C124 19.2386 121.761 17 119 17H9Z" fill="#FF9A88"/>
<path d="M6.67001 45.1295C5.45198 44.5002 4 45.3843 4 46.7553V105.75C4 108.511 6.23858 110.75 9 110.75H119C121.761 110.75 124 108.511 124 105.75V46.7553C124 45.3843 122.548 44.5002 121.33 45.1295L66.2951 73.5642C64.8554 74.308 63.1446 74.308 61.7049 73.5642L6.67001 45.1295Z" fill="#FFFA83"/>
<path d="M2.5 22V31.5133C2.5 32.7557 3.19114 33.895 4.29304 34.4689L60.9974 64.0024C62.8792 64.9825 65.1208 64.9825 67.0026 64.0024L123.707 34.4689C124.809 33.895 125.5 32.7557 125.5 31.5133V22C125.5 18.4101 122.59 15.5 119 15.5H9C5.41015 15.5 2.5 18.4101 2.5 22ZM2.5 46.7553V105.75C2.5 109.34 5.41015 112.25 9 112.25H119C122.59 112.25 125.5 109.34 125.5 105.75V46.7553C125.5 44.2605 122.858 42.6517 120.641 43.7969L65.6066 72.2316C64.5988 72.7522 63.4012 72.7522 62.3934 72.2316L7.35854 43.7969C5.14213 42.6517 2.5 44.2605 2.5 46.7553Z" stroke="black" stroke-width="3"/>
</svg>
