<svg width="128" height="128" viewBox="0 0 128 128" fill="none" xmlns="http://www.w3.org/2000/svg">
<path d="M116.296 53.5546H112V53.3333H64V74.6666H94.1413C89.744 87.0853 77.928 96 64 96C46.328 96 32 81.672 32 64C32 46.328 46.328 32 64 32C72.1573 32 79.5787 35.0773 85.2293 40.104L100.315 25.0186C90.7893 16.1413 78.048 10.6666 64 10.6666C34.5467 10.6666 10.6667 34.5466 10.6667 64C10.6667 93.4533 34.5467 117.333 64 117.333C93.4533 117.333 117.333 93.4533 117.333 64C117.333 60.424 116.965 56.9333 116.296 53.5546Z" fill="#FBC02D"/>
<path d="M16.816 39.176L34.3387 52.0266C39.08 40.288 50.5627 32 64 32C72.1573 32 79.5787 35.0773 85.2293 40.104L100.315 25.0186C90.7893 16.1413 78.048 10.6666 64 10.6666C43.5147 10.6666 25.7493 22.232 16.816 39.176Z" fill="#E53935"/>
<path d="M64 117.333C77.776 117.333 90.2933 112.061 99.7573 103.488L83.2507 89.52C77.896 93.576 71.24 96 64 96C50.128 96 38.3493 87.1547 33.912 74.8107L16.52 88.2107C25.3467 105.483 43.272 117.333 64 117.333Z" fill="#4CAF50"/>
<path d="M116.296 53.5547L116.253 53.3334H112H64V74.6667H94.1413C92.0293 80.632 88.192 85.776 83.2427 89.5227L83.2507 89.5174L99.7573 103.485C98.5893 104.547 117.333 90.6667 117.333 64C117.333 60.424 116.965 56.9334 116.296 53.5547Z" fill="#1565C0"/>
</svg>
