<svg width="128" height="128" viewBox="0 0 128 128" fill="none" xmlns="http://www.w3.org/2000/svg">
<path d="M30.5311 64.4326V71.9142H35.0419V64.4326L32.787 62.186L30.5311 64.4326Z" fill="black"/>
<path d="M54.0164 52.0982H73.1034V59.8108H54.0164V52.0982Z" fill="#6D6767"/>
<path d="M36.6104 58.3768L38.862 60.6193H46.3795V56.1334H38.862L36.6104 58.3768Z" fill="black"/>
<path d="M89.3001 64.829C89.3001 67.4047 87.2033 69.4923 84.6161 69.4923C82.0289 69.4923 79.9312 67.4047 79.9312 64.829C79.9312 62.2541 82.0289 60.1656 84.6161 60.1656C87.2033 60.1656 89.3001 62.2541 89.3001 64.829Z" fill="#DBFF00"/>
<path d="M91.7439 33.1952L49.9649 33.1953L46.1058 25.6052L57.6921 12.9396L84.6477 17.1639L91.7638 32.9417C91.7549 33.0236 91.7479 33.1082 91.7439 33.1952Z" fill="white" stroke="#FF7575" stroke-width="1.6"/>
<path d="M101.448 51.9203C101.448 54.4961 99.3499 56.5837 96.7635 56.5837C94.1763 56.5837 92.0787 54.496 92.0787 51.9203C92.0787 49.3446 94.1763 47.257 96.7635 47.257C99.3499 47.257 101.448 49.3446 101.448 51.9203Z" fill="#0500FF"/>
<path d="M49.2756 75.7358L49.2756 75.7359L42.1231 82.8618C41.3709 83.6111 40.3737 84.023 39.3085 84.023H20.7321C18.5363 84.023 16.7543 82.2441 16.7543 80.0669V62.6349C17.0777 63.0907 17.6098 63.388 18.2107 63.388H27.1184C27.4245 63.388 27.7222 63.3094 27.985 63.1633C27.8411 63.4244 27.7631 63.7201 27.7631 64.0243V72.8988C27.7631 73.8852 28.5629 74.6832 29.5475 74.6832H36.0261C37.0125 74.6832 37.8105 73.8835 37.8105 72.8988V64.0243C37.8105 63.7199 37.7324 63.4239 37.5883 63.1626C37.8513 63.3091 38.1495 63.3879 38.4561 63.3879H47.3646C48.351 63.3879 49.149 62.5882 49.149 61.6035V55.149C49.149 54.1627 48.3493 53.3646 47.3646 53.3646H38.4561C38.1512 53.3646 37.8533 53.4427 37.5902 53.5886C37.7336 53.3279 37.8113 53.0327 37.8113 52.729V43.8546C37.8113 42.8682 37.0116 42.0702 36.0269 42.0702H29.5483C28.5619 42.0702 27.7639 42.8699 27.7639 43.8546V52.729C27.7639 53.0331 27.8418 53.3286 27.9855 53.5896C27.7226 53.4433 27.4246 53.3646 27.1184 53.3646H18.2107C17.609 53.3646 17.0774 53.6622 16.7543 54.1178V38.9752C16.7543 37.761 17.7499 36.7643 18.981 36.7643H108.142C109.372 36.7643 110.368 37.7602 110.368 38.9752V80.8499L110.367 80.8498V81.8111C110.367 83.026 109.371 84.0223 108.14 84.0229H87.087C86.4883 84.0229 85.9317 83.7931 85.5107 83.3733L85.5104 83.3731L77.3317 75.2253C77.3317 75.2253 77.3317 75.2253 77.3317 75.2252C76.238 74.1356 74.781 73.5347 73.2364 73.5347H54.6088C52.5972 73.5347 50.6998 74.3172 49.2756 75.7358ZM33.6548 59.238C33.1172 58.9385 32.4578 58.9383 31.92 59.2374C32.064 58.9762 32.142 58.6803 32.142 58.376C32.142 58.0723 32.0643 57.777 31.9209 57.5162C32.1904 57.666 32.4902 57.7404 32.7876 57.7404C33.0857 57.7404 33.3849 57.6654 33.6535 57.5163C33.5101 57.777 33.4324 58.0723 33.4324 58.376C33.4324 58.6806 33.5106 58.9767 33.6548 59.238ZM74.0877 62.581C75.0741 62.581 75.8721 61.7812 75.8721 60.7966V51.1151C75.8721 50.1288 75.0724 49.3307 74.0877 49.3307H53.032C52.0456 49.3307 51.2476 50.1305 51.2476 51.1151V60.7966C51.2476 61.783 52.0473 62.581 53.032 62.581H74.0877ZM77.1632 64.8304C77.1632 68.9316 80.5078 72.2623 84.616 72.2623C88.7242 72.2623 92.0688 68.9316 92.0688 64.8304C92.0688 60.7292 88.7242 57.3984 84.616 57.3984C80.5087 57.3984 77.1632 60.73 77.1632 64.8304ZM89.3111 51.9221C89.3111 56.0233 92.6557 59.3541 96.7639 59.3541C100.871 59.3541 104.217 56.0225 104.217 51.9221C104.217 47.8209 100.872 44.4902 96.7639 44.4902C92.6565 44.4902 89.3111 47.8218 89.3111 51.9221Z" fill="#0C0C0C" stroke="#34C700" stroke-width="1.6"/>
<path d="M97.7958 101.14L73.4454 113.569L58.5576 105.143L61.1421 88.9715L77.6256 80.5535L82.9915 85.8992C82.9915 85.8992 82.9915 85.8992 82.9915 85.8992C84.0853 86.9889 85.5422 87.5898 87.0869 87.5898H99.346L97.7958 101.14Z" fill="black" stroke="#FF7575" stroke-width="1.6"/>
<path d="M113.135 58.454V71.245L114.887 69.6412L113.135 58.454Z" fill="black"/>
<path d="M95.9508 29.1597C95.3089 29.1597 94.7003 29.3044 94.156 29.5617L88.1601 16.2681L94.0427 12.733C98.1203 15.1928 101.929 18.1653 105.384 21.6206L105.95 21.0549L105.384 21.6206L105.385 21.6214C105.385 21.6214 105.385 21.6214 105.385 21.6214C108.836 25.0725 111.804 28.8757 114.262 32.9477L112.746 35.469C112.03 34.5354 111.035 33.8262 109.887 33.4639V33.3598C109.887 31.0409 107.997 29.1597 105.677 29.1597H95.9508Z" fill="black" stroke="#FF7575" stroke-width="1.6"/>
<path d="M75.3781 77.1848C74.8064 76.6147 74.0464 76.3017 73.237 76.3017H54.6094C53.333 76.3017 52.1325 76.7972 51.2302 77.6962L51.0377 77.8879L59.7153 86.5916L76.3129 78.1164L75.3781 77.1848Z" fill="black"/>
<path d="M26.5034 60.1191H19.6934V56.6332H26.5034L28.2531 58.3765L26.5034 60.1191Z" fill="black" stroke="black"/>
<path d="M35.0417 52.3189V44.8373H30.5309V52.3189L32.7866 54.5646L35.0417 52.3189Z" fill="black"/>
<path d="M45.9608 33.1944H35.3765C35.2887 30.9526 33.4345 29.1607 31.1705 29.1607H26.0075L42.9257 27.2251L45.9608 33.1944Z" fill="black" stroke="#FF7575" stroke-width="1.6"/>
<path d="M21.6397 105.358L21.6397 105.358C17.179 100.898 13.5832 95.8983 10.8441 90.5699L16.2339 91.0367L35.9362 110.795L36.3989 116.139C31.0817 113.402 26.092 109.81 21.6397 105.358Z" fill="black" stroke="#FF7575" stroke-width="1.6"/>
<path d="M18.9868 88.7436L19.2541 87.4452C19.732 87.5407 20.2263 87.5914 20.7321 87.5914H20.7322L39.3093 87.5906C39.3093 87.5906 39.3094 87.5906 39.3094 87.5906C41.321 87.5906 43.2183 86.808 44.6425 85.3894L44.6426 85.3894L49.6416 80.4091L57.6191 88.4111L55.0335 104.587L38.2334 108.047L18.9868 88.7436Z" fill="white" stroke="#FF7575" stroke-width="1.6"/>
<path d="M19.5034 33.9946V34.4946H20.0034H32.6118H33.1118V33.9946V33.3609C33.1118 32.2928 32.2391 31.4287 31.1712 31.4287H21.4439C20.3762 31.4287 19.5034 32.2918 19.5034 33.3609V33.9946Z" fill="black" stroke="#34C700"/>
<path d="M40.134 117.9L39.5719 111.412L56.305 107.967L71.1342 116.361L68.5192 122.493C58.9113 123.296 49.1395 121.764 40.134 117.9Z" fill="black" stroke="#FF7575" stroke-width="1.6"/>
<path d="M116.262 36.5461C120.478 44.7876 122.709 53.9735 122.7 63.5085C122.697 66.6773 122.444 69.8069 121.955 72.8777L117.604 69.0914L113.935 45.6767V40.4197L116.262 36.5461Z" fill="black" stroke="#FF7575" stroke-width="1.6"/>
<path d="M105.289 105.452C105.288 105.453 105.286 105.455 105.285 105.456C96.0881 114.653 84.5811 120.167 72.605 122.007L74.7873 116.89L99.7037 104.174L105.289 105.452Z" fill="black" stroke="#FF7575" stroke-width="1.6"/>
<path d="M13.9864 50.7418L12.5551 53.5451L13.9864 56.073V50.7418Z" fill="black"/>
<path d="M113.935 81.811V74.2648L115.971 72.4005L121.169 76.9232C118.996 86.3227 114.547 95.0472 108.101 102.435L101.414 100.905L102.938 87.5906H108.14C111.334 87.5906 113.935 85.0006 113.935 81.811Z" fill="white" stroke="#FF7575" stroke-width="1.6"/>
<path d="M13.1857 80.065C13.1857 82.4006 14.2597 84.4883 15.9346 85.8671L15.6192 87.399L9.08525 86.8328C5.22957 77.8319 3.70322 68.0664 4.50868 58.4641L10.6703 55.8365L13.1857 60.2808V80.065Z" fill="black" stroke="#FF7575" stroke-width="1.6"/>
<path d="M63.55 4.3C73.0614 4.3 82.2232 6.52813 90.4457 10.7321L85.5263 13.6887L57.9413 9.36589L54.1744 5.03641C57.2295 4.5532 60.3424 4.30289 63.4934 4.3H63.55Z" fill="black" stroke="#FF7575" stroke-width="1.6"/>
<path d="M54.631 10.9985L43.0897 23.6155L26.1285 25.556L24.5998 18.872C31.9922 12.4287 40.7223 7.98594 50.1255 5.81975L54.631 10.9985Z" fill="black" stroke="#FF7575" stroke-width="1.6"/>
<path d="M94.0084 33.9954V34.4954H94.5084H107.117H107.617V33.9954V33.3617C107.617 32.2924 106.744 31.4295 105.675 31.4295H95.9489C94.8813 31.4295 94.0084 32.2926 94.0084 33.3617V33.9954Z" fill="black" stroke="#34C700"/>
<path d="M13.1862 38.975V46.2207L10.1427 52.182L4.99751 54.3767C6.84132 42.408 12.3538 30.909 21.5465 21.7159C21.5582 21.7043 21.5698 21.6927 21.5814 21.6811L22.8595 27.2676L21.8926 29.1615H21.445C19.1252 29.1615 17.2357 31.0427 17.2357 33.3616V33.4658C14.8927 34.2055 13.1862 36.3911 13.1862 38.975Z" fill="white" stroke="#FF7575" stroke-width="1.6"/>
</svg>
