<svg width="311" height="41" viewBox="0 0 311 41" fill="none" xmlns="http://www.w3.org/2000/svg">
<g clip-path="url(#clip0_262_18)">
<path d="M15.91 26.0098H12.43C12.05 25.9298 11.65 25.8698 11.27 25.8098C10.89 25.7498 10.47 25.6898 10.05 25.6098C8.96996 25.3298 7.84996 24.8898 6.72996 24.2698C5.94995 23.8498 5.22995 23.3098 4.54995 22.6898C3.86995 22.0698 3.26995 21.3898 2.70995 20.6498C1.96995 19.5298 1.38995 18.2498 0.969954 16.8098C0.589954 15.3698 0.389954 13.8498 0.389954 12.2498V6.00983C0.389954 4.56983 0.889954 3.34983 1.90995 2.36983C2.90995 1.36983 4.12995 0.889832 5.56995 0.889832H19.35H22.79V7.80983H19.35H15.91H7.30996V12.2898C7.30996 16.8898 9.58996 19.2098 14.17 19.2098H17.65C19.09 19.2098 20.29 19.7098 21.29 20.6898C22.27 21.6698 22.77 22.8898 22.77 24.3298V35.6698C22.77 37.1098 22.27 38.3298 21.29 39.3698C20.31 40.3898 19.09 40.9098 17.65 40.9098H14.17H0.389954V33.9898H3.82995H12.43H15.91V32.2898V26.0098Z" fill="#11468F"/>
<path d="M33.6499 27.1098V32.2898V33.9698V40.8898H31.9099H26.7899V35.7098V25.3698V1.00983H30.2299H43.9899C45.4299 1.00983 46.6299 1.52983 47.6299 2.54983C48.6099 3.56983 49.1099 4.80983 49.1099 6.24983V13.3498C49.1099 14.1298 49.0699 14.8898 48.9899 15.6498C48.9099 16.4098 48.7699 17.1498 48.5899 17.8898C48.3899 18.5498 48.1499 19.2098 47.8699 19.8698C47.5699 20.5298 47.2299 21.1498 46.7899 21.7298C46.2899 22.4698 45.6899 23.1498 45.0099 23.7698C44.3299 24.3898 43.6099 24.9098 42.8299 25.3298C41.8699 25.9098 40.7299 26.3498 39.4499 26.6698C39.0699 26.7498 38.6699 26.8098 38.2899 26.8698C37.9099 26.9298 37.4899 26.9898 37.0699 27.0698V27.1298H33.6499V27.1098ZM33.6499 20.2498H35.3899C39.9699 20.2498 42.2499 17.9498 42.2499 13.3298V7.74983H33.6499V20.2498Z" fill="#11468F"/>
<path d="M70.2099 0.889832C71.6499 0.889832 72.8499 1.38983 73.8499 2.36983C74.8299 3.34983 75.3299 4.56983 75.3299 6.00983V9.50983V11.2498V14.6898V21.9098V35.6498C75.3299 37.0898 74.8299 38.3098 73.8499 39.3498C72.8699 40.3698 71.6499 40.8898 70.2099 40.8898H58.1099C56.6699 40.8898 55.4499 40.3698 54.4499 39.3498C53.4499 38.3298 52.9299 37.0898 52.9299 35.6498V33.9698V21.9098V11.2498V9.50983V7.76983V6.02983C52.9299 4.58983 53.4299 3.38983 54.4499 2.38983C55.4499 1.38983 56.6699 0.909832 58.1099 0.909832H66.7099H70.2099V0.889832ZM59.9299 7.80983L59.8699 13.7498V32.2898V33.9698H64.9899H68.4699V32.2898V12.9898V9.54983V7.80983H64.9899H59.9299Z" fill="#11468F"/>
<path d="M101.67 35.7098V40.8898H96.5499H94.8099V33.9698V32.2898V27.1098V27.0498C94.8099 26.5498 94.6699 26.1498 94.4099 25.8298C92.3499 26.6898 90.1899 27.1098 87.8899 27.1098H86.2099V33.9698V40.8898H79.2899V13.2898V6.06983V0.889832H81.0299H84.4699H94.8099H96.5499C97.9899 0.889832 99.1899 1.38983 100.19 2.40983C101.17 3.40983 101.67 4.64983 101.67 6.06983V13.2898C101.67 14.9298 101.47 16.4298 101.09 17.8298C100.71 19.1498 100.21 20.2898 99.6299 21.2698C100.37 21.8098 100.89 22.3898 101.19 23.0098C101.49 23.6298 101.65 24.4098 101.65 25.3298V33.9498V35.7098H101.67ZM94.8099 13.3098L94.7499 7.80983H91.3099H87.8699H86.1899V20.1898H87.8699C92.4899 20.1898 94.8099 17.8898 94.8099 13.3098Z" fill="#11468F"/>
<path d="M113.81 1.00983V40.8898H110.33V7.92983H105.21V1.00983H113.81Z" fill="#11468F"/>
<path d="M148.59 33.9698V40.8898H143.41H139.97H126.19V7.86983V6.10983V0.949829H127.93H131.31H141.71H145.15H148.59V6.10983V7.86983H141.73H139.99H138.25H134.81H133.13V17.5698H134.81C137.49 17.5698 139.39 16.8098 140.51 15.3098L145.21 20.3698C144.39 21.2698 143.41 22.0298 142.25 22.6898C141.71 23.0098 141.17 23.2698 140.63 23.4698C140.09 23.6898 139.53 23.8498 138.95 23.9698C137.59 24.3098 136.21 24.4898 134.83 24.4898H133.15V33.9698H138.27H141.75H148.59Z" fill="#041562"/>
<path d="M174.75 35.7098V40.8898H169.63H167.89V34.0298V32.2898V28.8698H164.47V28.8098C162.65 28.6498 160.93 28.1898 159.29 27.4098V40.8898H152.43V35.7098V32.2698V30.5898V25.4098V7.76982V6.02982C152.43 4.58982 152.93 3.38982 153.95 2.38982C154.95 1.38982 156.17 0.909821 157.61 0.909821H169.65C171.09 0.909821 172.29 1.40982 173.29 2.38982C174.27 3.36982 174.77 4.58982 174.77 6.02982V25.4098V27.0898V30.5898V32.2698V35.7098H174.75ZM167.89 21.9898V15.0698V7.80982H164.47H159.29V15.0698C159.29 19.6898 161.59 21.9898 166.21 21.9898H167.89Z" fill="#041562"/>
<path d="M204.33 0.949829C202.77 2.54983 201.47 3.98983 200.41 5.30983C199.35 6.62983 198.47 7.82983 197.77 8.94983C197.07 10.0698 196.49 11.0698 196.05 11.9698C195.61 12.8698 195.23 13.7498 194.91 14.5498C194.91 14.5298 194.89 14.5098 194.89 14.4898C194.55 13.6898 194.15 12.8498 193.73 11.9698C193.29 11.0498 192.71 10.0498 192.01 8.94983C191.31 7.84983 190.43 6.62983 189.37 5.30983C188.31 3.98983 186.99 2.52983 185.45 0.949829H178.53V40.8898H185.45V11.5298C185.53 11.6098 185.61 11.7298 185.69 11.8898C187.35 14.4498 188.71 17.1898 189.75 20.1498C190.79 23.0898 191.71 26.1098 192.49 29.2298C192.53 29.4298 192.57 29.5898 192.61 29.7498C192.65 29.9098 192.71 30.0898 192.79 30.2698H197.09C197.13 30.0698 197.17 29.9098 197.21 29.7498C197.25 29.5898 197.29 29.4298 197.33 29.2298C197.87 27.0898 198.49 25.0098 199.19 22.9698C199.89 20.9298 200.65 18.8498 201.45 16.7298C201.61 16.4298 201.73 16.1498 201.83 15.9098C201.93 15.6698 202.03 15.4298 202.15 15.1498C202.31 14.8898 202.43 14.6298 202.55 14.3898C202.67 14.1498 202.81 13.9298 202.95 13.6898C203.33 13.0298 203.73 12.4298 204.11 11.8898C204.15 11.8098 204.19 11.7498 204.23 11.7098C204.27 11.6698 204.31 11.6098 204.35 11.5298V40.8898H211.27V0.949829H204.33Z" fill="#041562"/>
<path d="M237.35 35.7098V40.8898H232.23H230.49V34.0298V32.2898V28.8698H227.05V28.8098C225.23 28.6498 223.51 28.1898 221.87 27.4098V40.8898H215.01V35.7098V32.2698V30.5898V25.4098V7.76982V6.02982C215.01 4.58982 215.51 3.38982 216.53 2.38982C217.53 1.38982 218.75 0.909821 220.19 0.909821H232.23C233.67 0.909821 234.87 1.40982 235.87 2.38982C236.85 3.36982 237.35 4.58982 237.35 6.02982V25.4098V27.0898V30.5898V32.2698V35.7098ZM230.49 21.9898V15.0698V7.80982H227.05H221.87V15.0698C221.87 19.6898 224.17 21.9898 228.79 21.9898H230.49Z" fill="#11468F"/>
<path d="M258.23 7.92983H253.05V40.8898H246.13V7.92983H241.01V1.00983H246.13H253.05H258.23V7.92983Z" fill="#11468F"/>
<path d="M279.27 1.00983C280.71 1.00983 281.91 1.52983 282.91 2.54983C283.89 3.56983 284.39 4.80983 284.39 6.24983V9.68983V11.3698V13.8698H277.53V9.66983V7.92983H274.09H268.91V13.8498V32.2898V33.9698H274.09H277.53V32.2898V29.5498H284.39V35.7098C284.39 37.1498 283.89 38.3698 282.91 39.3698C281.93 40.3698 280.71 40.8898 279.27 40.8898H267.19C265.75 40.8898 264.55 40.3898 263.55 39.3698C262.57 38.3698 262.07 37.1498 262.07 35.7098V33.9698V16.5298V11.3498V9.66983V7.92983V6.24983C262.07 4.80983 262.57 3.58983 263.55 2.54983C264.53 1.52983 265.75 1.00983 267.19 1.00983H275.79H279.27Z" fill="#11468F"/>
<path d="M303.75 20.8898V1.00983H310.61V40.8898H303.75V27.8098C302.59 27.9698 301.57 28.0098 300.69 27.9298C299.81 27.8498 299.03 27.7298 298.33 27.5498C297.63 27.3698 297.03 27.1698 296.49 26.9298C295.95 26.6898 295.51 26.4898 295.13 26.2898V40.8898H288.21V1.00983H295.13V13.9698C295.13 16.2898 295.77 18.0298 297.05 19.1698C298.35 20.3098 300.57 20.8898 303.75 20.8898Z" fill="#11468F"/>
<path d="M211.25 0.949829V40.8898H204.33V11.5298C204.29 11.6098 204.25 11.6698 204.21 11.7098C204.17 11.7498 204.13 11.8098 204.09 11.8898C203.71 12.4298 203.31 13.0298 202.93 13.6898C202.77 13.9298 202.65 14.1498 202.53 14.3898C202.41 14.6298 202.27 14.8698 202.13 15.1498C202.01 15.4298 201.91 15.6698 201.81 15.9098C201.71 16.1498 201.59 16.4098 201.43 16.7298C200.61 18.8698 199.85 20.9498 199.17 22.9698C198.47 25.0098 197.85 27.0898 197.31 29.2298C197.27 29.4298 197.23 29.5898 197.19 29.7498C197.15 29.9098 197.11 30.0898 197.07 30.2698H194.89V14.4898C194.91 14.5098 194.91 14.5298 194.91 14.5498C195.23 13.7298 195.59 12.8698 196.05 11.9698C196.49 11.0498 197.07 10.0498 197.77 8.94983C198.47 7.84983 199.35 6.62983 200.41 5.30983C201.47 3.98983 202.79 2.52983 204.33 0.949829H211.25Z" fill="#11468F"/>
<path d="M122.43 1.00983V7.92983H117.25V40.8898H113.81V1.00983H122.43Z" fill="#041562"/>
</g>
<defs>
<clipPath id="clip0_262_18">
<rect width="310.22" height="40" fill="white" transform="translate(0.389954 0.889832)"/>
</clipPath>
</defs>
</svg>
