<svg width="128" height="128" viewBox="0 0 128 128" fill="none" xmlns="http://www.w3.org/2000/svg">
<g clip-path="url(#clip0_389_72)">
<path d="M77.5432 1.44074C73.068 0.095506 68.3081 -0.640015 63.365 -0.640015C48.9428 -0.640015 36.036 5.56352 27.4315 15.3092L49.6039 33.0585L77.5432 1.44074Z" fill="#1A73E8"/>
<path d="M27.4213 15.3092C20.5662 23.0709 16.4266 33.0875 16.4266 44.0139C16.4266 52.4143 18.1862 59.2179 21.0747 65.3149L49.5937 33.0585L27.4213 15.3092Z" fill="#EA4335"/>
<path d="M63.365 26.942C73.2816 26.942 81.3166 34.5876 81.3166 44.0235C81.3166 48.2237 79.7197 52.0755 77.0753 55.0467C77.0753 55.0467 91.2535 39.0007 105.015 23.4386C99.3291 13.0349 89.4736 5.03124 77.5533 1.44073L49.5938 33.0585C52.8891 29.3131 57.8321 26.942 63.365 26.942Z" fill="#4285F4"/>
<path d="M63.365 61.0953C53.4485 61.0953 45.4135 53.4498 45.4135 44.0138C45.4135 39.8427 46.99 36.0199 49.5937 33.0488L21.0747 65.3149C25.9466 75.6025 34.0527 83.8578 42.403 94.2615L77.0651 55.0466C73.78 58.7436 68.8573 61.0953 63.365 61.0953Z" fill="#FBBC04"/>
<path d="M76.3837 104.965C92.0366 81.6706 110.293 71.0927 110.293 44.0139C110.293 36.5909 108.381 29.5938 105.015 23.4387L42.4132 94.2616C45.0678 97.5714 47.7427 101.094 50.3566 104.975C59.8765 118.969 57.2321 127.36 63.3752 127.36C69.4981 127.36 66.8638 118.96 76.3837 104.965Z" fill="#34A853"/>
</g>
<defs>
<clipPath id="clip0_389_72">
<rect width="128" height="128" fill="white"/>
</clipPath>
</defs>
</svg>
