<svg width="128" height="128" viewBox="0 0 128 128" fill="none" xmlns="http://www.w3.org/2000/svg">
<path d="M47.6782 67L49 48H28L29.3218 67H47.6788H47.6782Z" fill="#9AB6FF"/>
<path d="M46.1808 21.428C46.1808 25.5302 42.855 28.8553 38.7528 28.8553C34.6507 28.8553 31.3255 25.5302 31.3255 21.428C31.3255 17.3259 34.6507 14 38.7528 14C42.855 14 46.1808 17.3259 46.1808 21.428Z" fill="#9AB6FF"/>
<path d="M47.3063 68H29.881L28.6893 78.3187L23.0299 85.3617C21.5407 87.3277 21.6895 90.2753 23.3275 91.9132C25.1151 93.7147 27.7952 93.3874 29.434 91.586L35.9868 83.3959C36.5827 82.7406 36.8802 81.7581 37.029 80.9391L38.5183 68.8181L41.1991 76.6801L37.6248 89.9474C37.029 92.4043 38.2207 95.0254 40.6034 95.8443C42.986 96.4996 45.2207 95.0254 45.9653 92.5686L49.8378 77.8272C50.1354 76.8446 49.9866 75.8612 49.689 74.8788L47.3063 68Z" fill="#9AB6FF"/>
<path d="M18.8475 48.4642C17.8079 50.544 19.5902 51.8811 22.7101 58.5655C23.4529 59.9026 25.0867 60.4968 26.5728 59.7542C27.9098 59.0114 28.5041 57.3776 27.7614 55.8915L24.6422 49.6521L25.3849 48.3151L18.8474 48.3157L18.8475 48.4642Z" fill="#9AB6FF"/>
<path d="M27.7604 44.6019L28.0572 44.1559H49.7464L50.1923 37.9165H50.3407L57.4713 31.6772C57.7681 31.3803 58.0656 31.0828 58.214 30.6376L61.4824 22.7643C62.0767 21.2789 61.4824 19.6451 59.997 19.0507C58.5115 18.4564 56.8777 19.0507 56.2833 20.5362L53.164 27.815L47.0731 33.1632C40.3878 29.598 33.7033 29.8948 27.6128 34.7971C27.1669 35.0939 26.7216 35.3914 26.5732 35.8366L21.5225 44.3041H27.9101L27.7604 44.6019Z" fill="#9AB6FF"/>
<path d="M18.5 44.7V47.7H73.4232C73.5562 47.209 73.7098 46.7151 73.8722 46.1991C73.8895 46.1442 73.9069 46.089 73.9244 46.0335C74.0572 45.6121 74.1956 45.1728 74.3357 44.7H18.5Z" fill="white" stroke="black"/>
<path d="M98.5393 47.4166C98.5291 47.3893 98.5207 47.3667 98.5144 47.3422C99.0537 46.5736 99.5837 45.5278 100.093 44.5H108.493V47.5H98.5695C98.5605 47.4738 98.5515 47.4494 98.5429 47.4263C98.5417 47.423 98.5405 47.4197 98.5393 47.4166Z" fill="white" stroke="black"/>
<path d="M108.276 71.2516V74.75H106.273C106.39 73.3812 106.398 72.3017 106.399 71.2502L108.276 71.2516Z" fill="white" stroke="black" stroke-width="0.5"/>
<path d="M86.1617 41.6561C86.0133 40.9134 85.8649 40.1706 85.8649 39.4278C85.8649 37.4965 86.4592 35.7142 87.4988 34.2288L86.3101 33.0401C85.1215 32.0006 83.3392 32.0006 82.299 33.1885C81.2594 34.3772 81.2594 36.1595 82.4474 37.1996C83.3392 37.9417 84.6762 39.5763 86.1617 41.6561Z" fill="#FF0099"/>
<path d="M96.4108 48.9342C94.0343 49.2311 92.1029 50.2713 90.7658 52.0535C86.6062 48.4883 82.1499 44.3287 79.0299 40.4659C77.9904 39.2772 76.2074 39.1288 75.0188 40.02C73.8301 41.0595 73.6817 42.8425 74.5729 44.0311C78.584 48.9334 83.9315 53.8357 88.8338 57.8468V58.4411C89.4281 64.2346 89.1306 69.7311 87.6452 74.931C86.7541 78.3479 88.0911 81.7647 90.6161 83.696C88.8331 89.7869 86.7535 97.9569 83.6341 103.156C82.4454 105.236 83.0397 107.762 85.1195 108.95C87.1993 110.138 89.7251 109.544 90.913 107.464C94.7756 101.077 97.0039 92.163 99.0837 84.7352C101.46 83.6956 103.392 81.7642 104.134 79.0902C106.066 71.8114 106.511 64.2349 105.768 56.3611C105.324 51.9033 101.016 48.4864 96.4111 48.9323L96.4108 48.9342Z" fill="#FF0099"/>
<path d="M94.7773 46.856C98.9369 46.856 102.205 43.4392 102.205 39.428C102.205 35.2684 98.7884 32 94.7773 32C90.6177 32 87.3493 35.4169 87.3493 39.428C87.2016 43.4392 90.6184 46.856 94.7773 46.856Z" fill="#FF0099"/>
<rect x="10" y="34.1899" width="8.98734" height="78.6076" rx="4.49367" stroke="black" stroke-width="0.126582"/>
<rect x="108.797" y="35.519" width="8.86076" height="78.481" rx="4.43038" fill="white"/>
<rect x="109.43" y="36.1519" width="7.59494" height="77.2152" rx="3.79747" stroke="black" stroke-width="1.26582"/>
<rect x="10.6962" y="34.8861" width="7.59494" height="77.2152" rx="3.79747" fill="white" stroke="black" stroke-width="1.26582"/>
<line x1="19" y1="44.1367" x2="73.4304" y2="44.1367" stroke="black" stroke-width="0.126582"/>
<line x1="106.393" y1="69.6329" x2="108.785" y2="69.6329" stroke="black" stroke-width="0.126582"/>
<line x1="106.266" y1="71.1519" x2="108.658" y2="71.1519" stroke="black" stroke-width="0.126582"/>
<line x1="19" y1="48.2367" x2="74.4431" y2="48.2367" stroke="black" stroke-width="0.126582"/>
<path d="M19.5 71.5V74.5H86.1921C86.3556 73.9989 86.5451 73.4957 86.7449 72.9711C86.7659 72.9162 86.7869 72.861 86.8081 72.8055C86.9658 72.3921 87.1299 71.9619 87.2959 71.5H19.5Z" fill="white" stroke="black"/>
<path d="M74.6344 20.69C74.0067 20.3998 73.3335 20.1924 72.6272 20.0853C70.9131 22.1551 69.3265 24.1746 68.8962 27.7247C69.7545 27.6645 70.5635 27.5243 71.2603 27.3024C71.6054 24.2491 72.9213 22.7005 74.3159 21.0668C74.4212 20.9439 74.5281 20.8154 74.6344 20.69Z" fill="white" stroke="black" stroke-width="0.00104167"/>
<path d="M76.2489 33.2991C76.2036 30.6461 75.4427 27.2292 72.3185 25.0222C72.058 25.708 71.8663 26.4916 71.7659 27.4281L71.8365 27.5225C73.1956 29.1632 74.2003 31.6959 74.5534 34.347C75.1664 34.0723 75.7364 33.7196 76.2489 33.2991Z" fill="#FFC700" stroke="black" stroke-width="0.00104167"/>
<path d="M64.2331 29.3822C66.8787 30.1767 68.9997 30.5339 72.3508 29.2012C72.0673 28.6974 71.7591 28.2391 71.4305 27.8424L71.3995 27.8013C70.3964 28.1171 69.1734 28.2743 67.9076 28.2743C66.5772 28.2743 65.206 28.1002 64 27.764C64.0197 28.3206 64.0981 28.8624 64.2331 29.3822Z" fill="white" stroke="black" stroke-width="0.00104167"/>
<path d="M73.3723 31.5381C73.1509 30.8755 72.8903 30.2427 72.5961 29.6605C70.8921 30.3454 69.4929 30.6174 68.1954 30.6174C66.9084 30.6174 65.7162 30.3531 64.4153 29.9747C64.6838 30.74 65.0727 31.4484 65.5599 32.0781C68.0166 32.629 70.3692 32.6926 73.3723 31.5381Z" fill="#FFC700" stroke="black" stroke-width="0.00104167"/>
<path d="M74.7097 21.4025C74.3889 21.7783 74.0789 22.1432 73.7863 22.5164C76.6665 24.0846 77.8681 27.2473 78.5294 30.1131C78.8331 29.299 79 28.4186 79 27.4997C79 24.6727 77.4267 22.2068 75.1097 20.929C74.976 21.088 74.8417 21.2481 74.7097 21.4025Z" fill="#FFC700" stroke="black" stroke-width="0.00104167"/>
<path d="M66.5638 27.6986C67.1679 27.7524 67.777 27.7705 68.3718 27.7514C68.785 24.1516 70.3164 22.0775 72.0106 20.0197C71.8406 20.008 71.6696 20 71.4968 20C71.0844 20 70.6802 20.0349 70.2859 20.0991C68.5074 22.2347 66.9736 24.1051 66.5638 27.6986Z" fill="#FFC700" stroke="black" stroke-width="0.00104167"/>
<path d="M73.4706 22.9325C73.1128 23.4244 72.792 23.9458 72.5229 24.5352C75.7244 26.7409 76.6272 30.1123 76.7532 32.8454C77.3247 32.284 77.8057 31.6315 78.1752 30.9125C77.5317 27.8047 76.4391 24.5008 73.4706 22.9325Z" fill="white" stroke="black" stroke-width="0.00104167"/>
<path d="M73.5284 32.0318C71.7573 32.7091 70.2029 32.9833 68.7263 32.9833C67.8409 32.9833 66.9824 32.8858 66.1196 32.7231C67.4833 34.1259 69.3897 35 71.4968 35C72.3959 35 73.2582 34.8407 74.0577 34.5497C73.9509 33.6963 73.7705 32.8462 73.5284 32.0318Z" fill="white" stroke="black" stroke-width="0.00104167"/>
<path d="M66.0494 27.6438C66.443 24.1984 67.8694 22.2179 69.4624 20.2824C66.3946 21.1478 64.1198 23.9165 64.0005 27.2272C64.6427 27.4162 65.3366 27.5553 66.0494 27.6438Z" fill="white" stroke="black" stroke-width="0.00104167"/>
</svg>
